<svg width="224" height="36" viewBox="0 0 224 36" fill="none" xmlns="http://www.w3.org/2000/svg">
<path d="M1.12305 0.136719C2.22982 0.299479 3.20638 0.413411 4.05273 0.478516C4.93164 0.54362 5.66406 0.608724 6.25 0.673828C6.93359 0.738932 7.51953 0.771484 8.00781 0.771484H9.91211C11.1816 0.771484 13.2812 0.722656 16.2109 0.625C15.4948 0.852865 14.8926 1.17839 14.4043 1.60156C13.9486 2.02474 13.5742 2.46419 13.2812 2.91992C12.9232 3.44076 12.6628 3.97786 12.5 4.53125C12.3047 5.21484 12.1257 6.1263 11.9629 7.26562C11.8001 8.27474 11.6374 9.5931 11.4746 11.2207C11.3444 12.8483 11.2142 14.8828 11.084 17.3242C12.4837 15.7292 13.7044 14.3132 14.7461 13.0762C15.8203 11.8392 16.748 10.7487 17.5293 9.80469C18.3105 8.86068 18.9616 8.04688 19.4824 7.36328C20.0358 6.67969 20.4915 6.09375 20.8496 5.60547C21.696 4.4987 22.1842 3.75 22.3145 3.35938C22.347 3.13151 22.3307 2.85482 22.2656 2.5293C22.2005 2.26888 22.1029 1.95964 21.9727 1.60156C21.8424 1.21094 21.6471 0.78776 21.3867 0.332031C22.6888 0.397135 23.7956 0.445964 24.707 0.478516C25.651 0.511068 26.4323 0.54362 27.0508 0.576172C27.7669 0.608724 28.3529 0.625 28.8086 0.625H30.8594C31.6081 0.625 32.5846 0.625 33.7891 0.625C34.9935 0.592448 36.5072 0.559896 38.3301 0.527344C37.1257 0.820312 35.9863 1.21094 34.9121 1.69922C33.8379 2.1875 32.8776 2.65951 32.0312 3.11523C31.0547 3.66862 30.1432 4.23828 29.2969 4.82422C28.4505 5.47526 27.5065 6.24023 26.4648 7.11914C25.5859 7.86784 24.5605 8.79557 23.3887 9.90234C22.2168 10.9766 20.9473 12.2298 19.5801 13.6621C21.0449 16.5267 22.3145 18.8867 23.3887 20.7422C24.4954 22.5651 25.4232 24.0299 26.1719 25.1367C27.0182 26.4388 27.7344 27.4316 28.3203 28.1152C28.9062 28.7337 29.5898 29.3685 30.3711 30.0195C31.0221 30.5729 31.8359 31.1914 32.8125 31.875C33.7891 32.526 34.9121 33.1608 36.1816 33.7793L22.2656 34.4629C22.4609 34.2025 22.5749 33.8932 22.6074 33.5352C22.6725 33.1445 22.7051 32.7865 22.7051 32.4609C22.7051 32.1029 22.6725 31.7122 22.6074 31.2891C22.4772 30.7682 22.1354 29.9219 21.582 28.75C21.1263 27.7409 20.4264 26.3249 19.4824 24.502C18.5384 22.6465 17.2363 20.2051 15.5762 17.1777L11.4258 21.5234C11.263 22.5651 11.1816 23.5091 11.1816 24.3555C11.1816 25.2018 11.2142 25.9017 11.2793 26.4551C11.377 27.1387 11.5072 27.7246 11.6699 28.2129C11.8652 28.7012 12.1419 29.2546 12.5 29.873C12.793 30.4264 13.1836 31.0775 13.6719 31.8262C14.1602 32.5749 14.7786 33.4049 15.5273 34.3164C14.7786 34.1211 14.0299 33.9909 13.2812 33.9258C12.5326 33.8281 11.849 33.763 11.2305 33.7305C10.5143 33.6979 9.83073 33.7142 9.17969 33.7793C8.49609 33.8444 7.69857 33.9421 6.78711 34.0723C6.00586 34.2025 5.04557 34.3652 3.90625 34.5605C2.76693 34.7559 1.46484 35 0 35.293C0.716146 34.8698 1.28581 34.4141 1.70898 33.9258C2.13216 33.4375 2.47396 32.9655 2.73438 32.5098C3.02734 31.9889 3.22266 31.4844 3.32031 30.9961C3.38542 30.5729 3.43424 29.6615 3.4668 28.2617C3.5319 26.862 3.56445 25.2344 3.56445 23.3789C3.59701 21.4909 3.59701 19.5052 3.56445 17.4219C3.5319 15.3385 3.49935 13.3854 3.4668 11.5625C3.43424 9.73958 3.38542 8.19336 3.32031 6.92383C3.28776 5.62174 3.25521 4.82422 3.22266 4.53125C3.125 4.07552 2.99479 3.58724 2.83203 3.06641C2.66927 2.61068 2.44141 2.13867 2.14844 1.65039C1.88802 1.12956 1.54622 0.625 1.12305 0.136719ZM37.9801 30.4C37.9801 32.5067 38.5401 33.8533 39.6601 34.44C40.1934 34.7067 40.8734 34.84 41.7001 34.84C43.3801 34.84 44.8734 34.2 46.1801 32.92C47.5134 31.64 48.2334 30.4533 48.3401 29.36V15H51.1401V32.16C51.1401 32.9333 51.2867 33.5333 51.5801 33.96C51.9001 34.36 52.2201 34.5733 52.5401 34.6L52.9801 34.68H54.2201V35H51.7801C50.6867 35 49.8467 34.76 49.2601 34.28C48.7001 33.8 48.4067 33.32 48.3801 32.84L48.3401 32.16V30.44C47.8601 31.5867 47.0067 32.6667 45.7801 33.68C44.5534 34.6667 43.2067 35.16 41.7401 35.16C40.3001 35.16 39.1134 35.0267 38.1801 34.76C37.2734 34.4667 36.6201 34.0667 36.2201 33.56C35.5267 32.7333 35.1801 31.6667 35.1801 30.36V15H37.9801V30.4ZM74.0348 35C72.9414 35 72.1014 34.76 71.5148 34.28C70.9548 33.8 70.6614 33.32 70.6348 32.84L70.5948 32.16V19.6C70.5948 17.4933 70.0481 16.1467 68.9548 15.56C68.3948 15.2933 67.7014 15.16 66.8748 15.16C65.1681 15.16 63.6348 15.84 62.2748 17.2C60.9148 18.5333 60.2348 19.7333 60.2348 20.8V35H57.4348V15H60.2348V19.56C60.6881 18.4133 61.5281 17.3467 62.7548 16.36C63.9814 15.3467 65.3281 14.84 66.7948 14.84C68.2614 14.84 69.4481 14.9867 70.3548 15.28C71.2881 15.5467 71.9681 15.9333 72.3948 16.44C73.0614 17.2667 73.3948 18.3333 73.3948 19.64V32.16C73.3948 32.9333 73.5414 33.5333 73.8348 33.96C74.1548 34.36 74.4748 34.5733 74.7948 34.6L75.2348 34.68H76.4748V35H74.0348ZM91.3695 16.4C90.9428 16.0533 90.2495 15.76 89.2895 15.52C88.3561 15.28 87.6495 15.16 87.1695 15.16C86.6895 15.16 86.4095 15.16 86.3295 15.16C84.8895 15.1867 83.8495 15.56 83.2095 16.28C82.5695 16.9733 82.2495 17.76 82.2495 18.64C82.2495 19.52 82.5295 20.2667 83.0895 20.88C83.6495 21.4667 84.3428 21.9333 85.1695 22.28C86.0228 22.6 86.9295 22.9733 87.8895 23.4C88.8761 23.8267 89.7828 24.2667 90.6095 24.72C91.4628 25.1467 92.1695 25.7867 92.7295 26.64C93.2895 27.4667 93.5695 28.5067 93.5695 29.76C93.5695 31.0133 93.1295 32.08 92.2495 32.96C91.3695 33.84 90.3828 34.4267 89.2895 34.72C88.2228 35.0133 87.0628 35.16 85.8095 35.16C83.0895 35.16 81.0495 34.56 79.6895 33.36L79.9295 33.12C80.4628 33.6267 81.2495 34.04 82.2895 34.36C83.3561 34.68 84.3828 34.84 85.3695 34.84C86.9428 34.84 88.2361 34.4133 89.2495 33.56C90.2895 32.68 90.8095 31.6 90.8095 30.32C90.8095 29.0133 90.4228 27.9733 89.6495 27.2C88.8761 26.4 87.9295 25.7867 86.8095 25.36C85.7161 24.9067 84.6095 24.4667 83.4895 24.04C82.3695 23.5867 81.4228 22.9733 80.6495 22.2C79.8761 21.4 79.4895 20.48 79.4895 19.44C79.4895 18.4 79.7295 17.56 80.2095 16.92C80.6895 16.2533 81.3295 15.7867 82.1295 15.52C83.4895 15.0667 84.8495 14.84 86.2095 14.84C88.5028 14.84 90.2895 15.2667 91.5695 16.12L91.3695 16.4ZM97.5645 15.32V15H98.4045V11H101.204V15H107.324V15.32H101.204V29.88C101.204 31.6133 101.391 32.8667 101.764 33.64C102.164 34.4133 102.978 34.8 104.204 34.8C105.458 34.8 106.724 34.5467 108.004 34.04L108.124 34.36C106.791 34.8667 105.258 35.12 103.524 35.12C101.818 35.12 100.538 34.7733 99.6845 34.08C98.8311 33.36 98.4045 31.9467 98.4045 29.84V15.32H97.5645ZM113.124 15.32V15H127.004V15.32L114.924 34.68H124.484C126.324 34.68 127.43 34.1467 127.804 33.08L128.044 33.2C128.044 33.3067 127.95 33.4933 127.764 33.76C127.577 34 127.364 34.2 127.124 34.36C126.484 34.7867 125.604 35 124.484 35H112.124V34.68L124.204 15.32H113.124ZM140.934 35.16C138.134 35.16 135.854 34.36 134.094 32.76C132.334 31.16 131.454 28.6933 131.454 25.36C131.454 22.0267 132.36 19.44 134.174 17.6C136.014 15.76 138.334 14.84 141.134 14.84C143.96 14.84 146.254 15.64 148.014 17.24C149.774 18.84 150.654 21.3067 150.654 24.64C150.654 27.9733 149.734 30.56 147.894 32.4C146.08 34.24 143.76 35.16 140.934 35.16ZM141.214 15.16C139.187 15.16 137.507 16.0667 136.174 17.88C134.84 19.6667 134.174 22.1733 134.174 25.4C134.174 28.6 134.787 30.9733 136.014 32.52C137.24 34.0667 138.867 34.84 140.894 34.84C142.92 34.84 144.6 33.9467 145.934 32.16C147.267 30.3467 147.934 27.84 147.934 24.64C147.934 21.4133 147.32 19.0267 146.094 17.48C144.867 15.9333 143.24 15.16 141.214 15.16ZM157.756 25.24C157.756 28.5467 158.33 30.9733 159.476 32.52C160.65 34.0667 162.183 34.84 164.076 34.84C166.743 34.84 169.116 34.44 171.196 33.64L171.316 33.92C169.183 34.7467 166.77 35.16 164.076 35.16C161.41 35.16 159.236 34.36 157.556 32.76C155.876 31.16 155.036 28.6933 155.036 25.36C155.036 22.0267 155.916 19.44 157.676 17.6C159.436 15.76 161.676 14.84 164.396 14.84C166.583 14.84 168.423 15.4933 169.916 16.8C171.41 18.1067 172.156 20.04 172.156 22.6C172.156 22.7333 172.156 22.8667 172.156 23H157.876C157.796 23.72 157.756 24.4667 157.756 25.24ZM169.436 22.68C169.41 20.12 168.916 18.2267 167.956 17C166.996 15.7733 165.756 15.16 164.236 15.16C162.716 15.16 161.356 15.8267 160.156 17.16C158.983 18.4933 158.236 20.3333 157.916 22.68H169.436ZM178.186 5V24.92L186.986 15H187.386L180.866 22.36L189.466 35H186.666L179.266 24.12L178.186 25.36V35H175.386V5H178.186ZM194.766 25.24C194.766 28.5467 195.339 30.9733 196.486 32.52C197.659 34.0667 199.192 34.84 201.086 34.84C203.752 34.84 206.126 34.44 208.206 33.64L208.326 33.92C206.192 34.7467 203.779 35.16 201.086 35.16C198.419 35.16 196.246 34.36 194.566 32.76C192.886 31.16 192.046 28.6933 192.046 25.36C192.046 22.0267 192.926 19.44 194.686 17.6C196.446 15.76 198.686 14.84 201.406 14.84C203.592 14.84 205.432 15.4933 206.926 16.8C208.419 18.1067 209.166 20.04 209.166 22.6C209.166 22.7333 209.166 22.8667 209.166 23H194.886C194.806 23.72 194.766 24.4667 194.766 25.24ZM206.446 22.68C206.419 20.12 205.926 18.2267 204.966 17C204.006 15.7733 202.766 15.16 201.246 15.16C199.726 15.16 198.366 15.8267 197.166 17.16C195.992 18.4933 195.246 20.3333 194.926 22.68H206.446ZM219.636 16.72V15.88C218.436 16.36 217.342 17.3333 216.356 18.8C215.369 20.24 214.849 21.6 214.796 22.88V35H211.996V15H214.796V21.36C215.222 19.8133 216.036 18.36 217.236 17C218.436 15.6133 219.796 14.8933 221.316 14.84H221.476C222.009 14.84 222.449 15.0267 222.796 15.4C223.169 15.7467 223.356 16.1867 223.356 16.72C223.356 17.2533 223.169 17.6933 222.796 18.04C222.449 18.3867 222.009 18.56 221.476 18.56C220.942 18.56 220.502 18.3867 220.156 18.04C219.809 17.6933 219.636 17.2533 219.636 16.72Z" fill="white"/>
</svg>
